# xmcd
#
# Track frame offsets: 
#        151
#        11846
#        24626
#        40821
#        50932
#        65177
#        77132
#        89910
#        102383
#        113547
#
# Disc length: 1719 seconds
#
# Revision: 0
# Processed by: cddbd v1.5.2PL0 Copyright (c) Steve Scherf et al.
# Submitted via: ExactAudioCopy v0.99pb3
#
DISCID=8d06b50a
DTITLE=Melba Montgomery - Golden Moments
DYEAR=2001
DGENRE=Country
TTITLE0=Silver Threads And Golden Needles
TTITLE1=I Never Will Outgrow My Love For You
TTITLE2=Making Believe
TTITLE3=Let's All Go Down To The River
TTITLE4=Pass Me By (If You're Only Passing Through)
TTITLE5=Crawdad Song
TTITLE6=He Thinks I Still Care
TTITLE7=Jambalaya
TTITLE8=Searching (For Someone Like You)
TTITLE9=Lonely Street
EXTD=
EXTT0=
EXTT1=
EXTT2=
EXTT3=
EXTT4=
EXTT5=
EXTT6=
EXTT7=
EXTT8=
EXTT9=
PLAYORDER=
